<?xml version="1.0" encoding="utf-8"?>
<!-- Generator: Adobe Illustrator 25.0.1, SVG Export Plug-In . SVG Version: 6.00 Build 0)  -->
<svg version="1.1" id="图层_1" xmlns="http://www.w3.org/2000/svg" xmlns:xlink="http://www.w3.org/1999/xlink" x="0px" y="0px"
	 viewBox="0 0 499.3 285.2" style="enable-background:new 0 0 499.3 285.2;" xml:space="preserve">
<style type="text/css">
	.st0{fill:#CDFA50;}
	.st1{fill:#FFFFFF;}
</style>
<g>
	<g>
		<path d="M225.6,125.8l21.8-76.5l12.8-44.8c0.4-1.3-0.6-2.5-1.9-2.5h-22.8c-0.9,0-1.7,0.6-1.9,1.4l-27.4,96.2
			c-0.2,0.9-1,1.4-1.9,1.4h-50.9c-0.9,0-1.7,0.6-1.9,1.4l-16.6,58.1c-0.4,1.3,0.6,2.5,1.9,2.5h22.8c0.9,0,1.7-0.6,1.9-1.4l9.4-33
			c0.2-0.9,1-1.4,1.9-1.4h50.9C224.6,127.3,225.4,126.7,225.6,125.8z"/>
		<path d="M418.5,160.5L362.4,3.3c-0.3-0.8-1-1.3-1.9-1.3h-24.4c-1,0-1.9,0.8-2,1.8l-15.8,131.4c-0.1,1-1,1.8-2,1.8h-15.4
			c-0.9,0-1.7-0.6-1.9-1.4l-24.2-84.7c-0.2-0.9-1-1.4-1.9-1.4h-22.8c-1.3,0-2.3,1.3-1.9,2.5l31.3,109.9c0.2,0.9,1,1.4,1.9,1.4h57
			c1,0,1.9-0.8,2-1.8l12.3-102.7c0.1-1.2,1.8-1.4,2.2-0.3L392,161.8c0.3,0.8,1,1.3,1.9,1.3h22.7C418,163.2,418.9,161.8,418.5,160.5z
			"/>
		<path d="M181.9,89.9l24.4-85.4c0.4-1.3-0.6-2.5-1.9-2.5h-76.8c-0.9,0-1.7,0.6-1.9,1.4l-6.3,22.2c-0.4,1.3,0.6,2.5,1.9,2.5h48.7
			c1.3,0,2.3,1.3,1.9,2.5l-9.4,32.9c-0.2,0.9-1,1.4-1.9,1.4h-50.9c-0.9,0-1.7,0.6-1.9,1.4l-26.8,94c-0.4,1.3,0.6,2.5,1.9,2.5h22.8
			c0.9,0,1.7-0.6,1.9-1.4l19.6-68.9c0.2-0.9,1-1.4,1.9-1.4H180C180.9,91.4,181.7,90.8,181.9,89.9z"/>
		<path d="M262.3,138.3c-0.2-0.9-1-1.4-1.9-1.4H197c-0.9,0-1.7,0.6-1.9,1.4l-6.3,22.3c-0.4,1.3,0.6,2.5,1.9,2.5h76.2
			c1.3,0,2.3-1.3,1.9-2.6L262.3,138.3z"/>
	</g>
	<g>
		<polygon points="3.5,238.5 3.5,241.4 3.5,282.4 13.4,282.4 13.4,241.4 34.8,241.4 34.8,258.7 17.4,258.7 21.7,268.6 44.7,268.6 
			44.7,259.3 44.7,258.7 44.7,241.4 44.7,235.6 44.7,231.5 3.5,231.5 		"/>
		<polygon points="410.2,268.6 410.2,259.3 410.2,258.7 410.2,241.4 410.2,235.6 410.2,231.5 369,231.5 369,238.5 369,241.4 
			369,282.4 378.9,282.4 378.9,241.4 400.3,241.4 400.3,258.7 397.8,258.7 388.9,258.7 386.8,258.7 401.4,282.4 412.4,282.4 
			403.9,268.6 		"/>
		<polygon points="168.2,231.5 158.2,231.5 158.2,282.3 158.9,282.3 168.2,282.3 184.2,282.3 188.7,272.3 168.2,272.3 		"/>
		<polygon points="132.2,231.5 122.4,231.5 122.3,231.5 99.5,282.3 106.4,282.3 109.4,282.3 136.2,282.3 132.2,272.3 113.9,272.3 
			127.3,242.5 145.2,282.3 155.1,282.3 132.3,231.5 		"/>
		<rect x="86.5" y="272.3" width="10" height="10"/>
		<polygon points="86.5,258.5 61.3,258.5 61.3,231.5 51.4,231.5 51.4,282.3 61.3,282.3 61.3,268.5 96.5,268.5 96.5,258.5 
			96.5,231.5 86.5,231.5 		"/>
		<path d="M454.6,231.3v9.9v0.1v30.9v1.7v8.3h41.2v-8.5v-1.4v-30.9v-5.8v-4.1H454.6z M485.9,272.2h-21.3v-27.1l-9.7-3.8h31V272.2z"
			/>
		<polygon points="428.6,231.5 418.6,231.5 418.6,282.3 419.3,282.3 428.6,282.3 444.6,282.3 449.1,272.3 428.6,272.3 		"/>
		<polygon points="303.2,231.5 290.4,260 283.2,244 278.2,232.9 273.2,244 266,260 253.2,231.5 243.2,231.5 261,271.1 266,282.3 
			271,271.1 278.2,255.2 285.3,271.1 290.4,282.3 295.4,271.1 313.2,231.5 		"/>
		<polygon points="221.9,231.5 212,231.5 211.9,231.5 189.1,282.3 196,282.3 199,282.3 225.8,282.3 221.9,272.3 203.5,272.3 
			216.9,242.5 234.8,282.3 244.7,282.3 221.9,231.5 		"/>
		<path d="M336.8,230.8c-14.5,0-26.2,11.7-26.2,26.2c0,14.5,11.7,26.2,26.2,26.2c14.5,0,26.2-11.7,26.2-26.2
			C363,242.5,351.2,230.8,336.8,230.8z M336.8,273.5c-9.1,0-16.6-7.4-16.6-16.6c0-9.1,7.4-16.6,16.6-16.6c9.1,0,16.6,7.4,16.6,16.6
			C353.3,266.1,345.9,273.5,336.8,273.5z"/>
	</g>
</g>
</svg>
