<?xml version="1.0" encoding="utf-8"?>
<!-- Generator: Adobe Illustrator 25.0.1, SVG Export Plug-In . SVG Version: 6.00 Build 0)  -->
<svg version="1.1" id="图层_1" xmlns="http://www.w3.org/2000/svg" xmlns:xlink="http://www.w3.org/1999/xlink" x="0px" y="0px"
	 viewBox="0 0 346.5 165.3" style="enable-background:new 0 0 346.5 165.3;" xml:space="preserve">
<style type="text/css">
	.st0{fill:#CDFA50;}
	.st1{fill:#FFFFFF;}
</style>
<g>
	<path class="st0" d="M149.2,125.9l21.8-76.5l12.8-44.8c0.4-1.3-0.6-2.5-1.9-2.5h-22.8c-0.9,0-1.7,0.6-1.9,1.4l-27.4,96.2
		c-0.2,0.9-1,1.4-1.9,1.4H76.9c-0.9,0-1.7,0.6-1.9,1.4l-16.6,58.1c-0.4,1.3,0.6,2.5,1.9,2.5h22.8c0.9,0,1.7-0.6,1.9-1.4l9.4-33
		c0.2-0.9,1-1.4,1.9-1.4h50.9C148.2,127.4,149,126.8,149.2,125.9z"/>
	<path class="st0" d="M342.1,160.6L286,3.4c-0.3-0.8-1-1.3-1.9-1.3h-24.4c-1,0-1.9,0.8-2,1.8l-15.8,131.4c-0.1,1-1,1.8-2,1.8h-15.4
		c-0.9,0-1.7-0.6-1.9-1.4l-24.2-84.7c-0.2-0.9-1-1.4-1.9-1.4h-22.8c-1.3,0-2.3,1.3-1.9,2.5l31.3,109.9c0.2,0.9,1,1.4,1.9,1.4h57
		c1,0,1.9-0.8,2-1.8l12.3-102.7c0.1-1.2,1.8-1.4,2.2-0.3l36.9,103.4c0.3,0.8,1,1.3,1.9,1.3h22.7
		C341.6,163.3,342.5,161.9,342.1,160.6z"/>
	<path class="st0" d="M105.5,90l24.4-85.4c0.4-1.3-0.6-2.5-1.9-2.5H51.2c-0.9,0-1.7,0.6-1.9,1.4l-6.3,22.2c-0.4,1.3,0.6,2.5,1.9,2.5
		h48.7c1.3,0,2.3,1.3,1.9,2.5L86,63.8c-0.2,0.9-1,1.4-1.9,1.4H33.2c-0.9,0-1.7,0.6-1.9,1.4l-26.8,94c-0.4,1.3,0.6,2.5,1.9,2.5h22.8
		c0.9,0,1.7-0.6,1.9-1.4l19.6-68.9c0.2-0.9,1-1.4,1.9-1.4h50.9C104.5,91.5,105.3,90.9,105.5,90z"/>
	<path class="st0" d="M185.9,138.4c-0.2-0.9-1-1.4-1.9-1.4h-63.4c-0.9,0-1.7,0.6-1.9,1.4l-6.3,22.3c-0.4,1.3,0.6,2.5,1.9,2.5h76.2
		c1.3,0,2.3-1.3,1.9-2.6L185.9,138.4z"/>
</g>
</svg>
