<?xml version="1.0" encoding="utf-8"?>
<!-- Generator: Adobe Illustrator 25.0.1, SVG Export Plug-In . SVG Version: 6.00 Build 0)  -->
<svg version="1.1" id="图层_1" xmlns="http://www.w3.org/2000/svg" xmlns:xlink="http://www.w3.org/1999/xlink" x="0px" y="0px"
	 viewBox="0 0 499.6 53.2" style="enable-background:new 0 0 499.6 53.2;" xml:space="preserve">
<style type="text/css">
	.st0{fill:#CDFA50;}
	.st1{fill:#FFFFFF;}
</style>
<g>
	<polygon class="st0" points="3.6,8.1 3.6,11 3.6,52.1 13.6,52.1 13.6,11 34.9,11 34.9,28.3 17.5,28.3 21.9,38.3 44.9,38.3 
		44.9,28.9 44.9,28.3 44.9,11 44.9,5.2 44.9,1.1 3.6,1.1 	"/>
	<polygon class="st0" points="410.4,38.3 410.4,28.9 410.4,28.3 410.4,11 410.4,5.2 410.4,1.1 369.1,1.1 369.1,8.1 369.1,11 
		369.1,52.1 379.1,52.1 379.1,11 400.4,11 400.4,28.3 397.9,28.3 389.1,28.3 386.9,28.3 401.5,52.1 412.5,52.1 404,38.3 	"/>
	<polygon class="st0" points="168.3,1.1 158.4,1.1 158.4,51.9 159.1,51.9 168.3,51.9 184.3,51.9 188.9,41.9 168.3,41.9 	"/>
	<polygon class="st0" points="132.4,1.1 122.5,1.1 122.4,1.1 99.6,51.9 106.6,51.9 109.6,51.9 136.4,51.9 132.4,41.9 114,41.9 
		127.4,12.1 145.3,51.9 155.3,51.9 132.5,1.1 	"/>
	<rect x="86.7" y="41.9" class="st0" width="10" height="10"/>
	<polygon class="st0" points="86.7,28.2 61.5,28.2 61.5,1.1 51.5,1.1 51.5,51.9 61.5,51.9 61.5,38.1 96.6,38.1 96.6,28.2 96.6,1.1 
		86.7,1.1 	"/>
	<path class="st0" d="M454.8,0.9v9.9v0.1v30.9v1.7v8.3H496v-8.5v-1.4V10.9V5V0.9H454.8z M486,41.8h-21.3V14.7l-9.7-3.8h31V41.8z"/>
	<polygon class="st0" points="428.7,1.1 418.8,1.1 418.8,51.9 419.5,51.9 428.7,51.9 444.7,51.9 449.3,41.9 428.7,41.9 	"/>
	<polygon class="st0" points="303.3,1.1 290.5,29.6 283.3,13.6 278.3,2.5 273.3,13.6 266.2,29.6 253.4,1.1 243.4,1.1 261.2,40.7 
		266.2,51.9 271.2,40.7 278.3,24.8 285.5,40.7 290.5,51.9 295.5,40.7 313.3,1.1 	"/>
	<polygon class="st0" points="222,1.1 212.1,1.1 212,1.1 189.2,51.9 196.2,51.9 199.2,51.9 226,51.9 222,41.9 203.7,41.9 
		217.1,12.1 234.9,51.9 244.9,51.9 222.1,1.1 	"/>
	<path class="st0" d="M336.9,0.4c-14.5,0-26.2,11.7-26.2,26.2s11.7,26.2,26.2,26.2c14.5,0,26.2-11.7,26.2-26.2S351.4,0.4,336.9,0.4z
		 M336.9,43.2c-9.1,0-16.6-7.4-16.6-16.6c0-9.1,7.4-16.6,16.6-16.6c9.1,0,16.6,7.4,16.6,16.6C353.4,35.7,346,43.2,336.9,43.2z"/>
</g>
</svg>
